<svg width="16" height="16" viewBox="-2 -1 32 32" fill="none" xmlns="http://www.w3.org/2000/svg">
<path d="M26.6667 16.0001C26.6667 15.6465 26.5262 15.3073 26.2762 15.0573C26.0261 14.8072 25.687 14.6667 25.3334 14.6667H15.2134L18.28 11.6134C18.4044 11.4891 18.503 11.3415 18.5703 11.1791C18.6375 11.0167 18.6722 10.8426 18.6722 10.6667C18.6722 10.4909 18.6375 10.3168 18.5703 10.1544C18.503 9.99199 18.4044 9.8444 18.28 9.72008C18.1557 9.59576 18.0081 9.49715 17.8457 9.42987C17.6833 9.36259 17.5092 9.32796 17.3334 9.32796C17.1576 9.32796 16.9835 9.36259 16.821 9.42987C16.6586 9.49715 16.511 9.59576 16.3867 9.72008L11.0534 15.0534C10.932 15.1802 10.8368 15.3297 10.7734 15.4934C10.64 15.818 10.64 16.1821 10.7734 16.5067C10.8368 16.6704 10.932 16.8199 11.0534 16.9467L16.3867 22.2801C16.5107 22.4051 16.6581 22.5042 16.8206 22.5719C16.9831 22.6396 17.1574 22.6745 17.3334 22.6745C17.5094 22.6745 17.6837 22.6396 17.8461 22.5719C18.0086 22.5042 18.1561 22.4051 18.28 22.2801C18.405 22.1561 18.5042 22.0087 18.5719 21.8462C18.6396 21.6837 18.6744 21.5094 18.6744 21.3334C18.6744 21.1574 18.6396 20.9831 18.5719 20.8206C18.5042 20.6582 18.405 20.5107 18.28 20.3867L15.2134 17.3334H25.3334C25.687 17.3334 26.0261 17.1929 26.2762 16.9429C26.5262 16.6928 26.6667 16.3537 26.6667 16.0001ZM22.6667 2.66675H9.33337C8.27251 2.66675 7.25509 3.08818 6.50495 3.83832C5.7548 4.58847 5.33337 5.60588 5.33337 6.66675V25.3334C5.33337 26.3943 5.7548 27.4117 6.50495 28.1618C7.25509 28.912 8.27251 29.3334 9.33337 29.3334H22.6667C23.7276 29.3334 24.745 28.912 25.4951 28.1618C26.2453 27.4117 26.6667 26.3943 26.6667 25.3334V21.3334C26.6667 20.9798 26.5262 20.6407 26.2762 20.3906C26.0261 20.1406 25.687 20.0001 25.3334 20.0001C24.9798 20.0001 24.6406 20.1406 24.3906 20.3906C24.1405 20.6407 24 20.9798 24 21.3334V25.3334C24 25.687 23.8596 26.0262 23.6095 26.2762C23.3595 26.5263 23.0203 26.6667 22.6667 26.6667H9.33337C8.97975 26.6667 8.64061 26.5263 8.39057 26.2762C8.14052 26.0262 8.00004 25.687 8.00004 25.3334V6.66675C8.00004 6.31313 8.14052 5.97399 8.39057 5.72394C8.64061 5.47389 8.97975 5.33341 9.33337 5.33341H22.6667C23.0203 5.33341 23.3595 5.47389 23.6095 5.72394C23.8596 5.97399 24 6.31313 24 6.66675V10.6667C24 11.0204 24.1405 11.3595 24.3906 11.6096C24.6406 11.8596 24.9798 12.0001 25.3334 12.0001C25.687 12.0001 26.0261 11.8596 26.2762 11.6096C26.5262 11.3595 26.6667 11.0204 26.6667 10.6667V6.66675C26.6667 5.60588 26.2453 4.58847 25.4951 3.83832C24.745 3.08818 23.7276 2.66675 22.6667 2.66675Z" fill="#D9D9D9"/>
</svg>
