<svg width="122" height="32" viewBox="0 0 122 32" fill="none" xmlns="http://www.w3.org/2000/svg">
<path d="M7.36 3.648L12.096 3.008L9.824 13.696C10.848 13.6107 11.7867 13.1627 12.64 12.352C13.5147 11.5413 14.1973 10.5387 14.688 9.344C15.1787 8.14933 15.424 6.976 15.424 5.824C15.424 4.544 15.0933 3.49867 14.432 2.688C13.7707 1.87733 12.7787 1.472 11.456 1.472C8.85333 1.472 6.816 2.15466 5.344 3.52C3.89333 4.88533 3.168 6.79467 3.168 9.248C3.168 10.0373 3.24267 10.592 3.392 10.912C3.54133 11.2107 3.616 11.3813 3.616 11.424C2.464 11.424 1.6 11.1893 1.024 10.72C0.469333 10.2293 0.192 9.42933 0.192 8.32C0.192 6.95467 0.746667 5.632 1.856 4.352C2.98667 3.05067 4.42667 2.00533 6.176 1.216C7.92533 0.405332 9.67467 -1.90735e-06 11.424 -1.90735e-06C13.1093 -1.90735e-06 14.5173 0.287998 15.648 0.863998C16.7787 1.44 17.6107 2.208 18.144 3.168C18.6987 4.10667 18.976 5.152 18.976 6.304C18.976 7.69067 18.592 9.04533 17.824 10.368C17.0773 11.6907 16 12.7787 14.592 13.632C13.184 14.464 11.5627 14.88 9.728 14.88H9.568L7.616 24H3.008L7.36 3.648ZM25.8958 24.128C24.3171 24.128 23.0691 23.7227 22.1518 22.912C21.2344 22.1013 20.7758 20.8213 20.7758 19.072C20.7758 17.6213 21.0744 16.0107 21.6718 14.24C22.2691 12.4693 23.2291 10.944 24.5518 9.664C25.8744 8.36267 27.5384 7.712 29.5438 7.712C32.2744 7.712 33.6398 9.41867 33.6398 12.832V12.864C33.7038 12.8853 33.8211 12.896 33.9918 12.896C34.6958 12.896 35.5064 12.7147 36.4238 12.352C37.3411 11.968 38.1731 11.5093 38.9198 10.976L39.2078 11.84C38.5891 12.5013 37.7784 13.0667 36.7758 13.536C35.7944 13.984 34.7171 14.304 33.5438 14.496C33.3731 16.4373 32.9358 18.1333 32.2318 19.584C31.5278 21.0347 30.6211 22.1547 29.5118 22.944C28.4024 23.7333 27.1971 24.128 25.8958 24.128ZM27.1758 21.248C27.6878 21.248 28.1998 20.96 28.7118 20.384C29.2238 19.7867 29.6718 18.9867 30.0558 17.984C30.4398 16.96 30.7171 15.8293 30.8878 14.592C30.3118 14.464 30.0238 14.016 30.0238 13.248C30.0238 12.3733 30.3544 11.7973 31.0158 11.52C30.9731 10.816 30.8664 10.336 30.6958 10.08C30.5251 9.80267 30.2264 9.664 29.7998 9.664C29.0958 9.664 28.4131 10.176 27.7518 11.2C27.0904 12.224 26.5571 13.4507 26.1518 14.88C25.7464 16.3093 25.5438 17.568 25.5438 18.656C25.5438 19.68 25.6611 20.3733 25.8958 20.736C26.1304 21.0773 26.5571 21.248 27.1758 21.248ZM41.3343 24.192C40.3103 24.192 39.4783 23.872 38.8383 23.232C38.2196 22.592 37.9103 21.632 37.9103 20.352C37.9103 19.8187 37.9956 19.1253 38.1663 18.272L41.5903 2.24L46.3263 1.6L42.6463 18.88C42.5609 19.2 42.5183 19.5413 42.5183 19.904C42.5183 20.3307 42.6143 20.64 42.8063 20.832C43.0196 21.0027 43.3609 21.088 43.8303 21.088C44.4489 21.088 45.0249 20.832 45.5583 20.32C46.0916 19.7867 46.4756 19.104 46.7103 18.272H48.0543C47.2649 20.576 46.2516 22.144 45.0143 22.976C43.7769 23.7867 42.5503 24.192 41.3343 24.192ZM53.4175 24.192C52.2015 24.192 51.1882 23.776 50.3775 22.944C49.5668 22.112 49.1615 20.8107 49.1615 19.04C49.1615 17.4613 49.4708 15.808 50.0895 14.08C50.7295 12.3307 51.6682 10.8587 52.9055 9.664C54.1642 8.448 55.6575 7.84 57.3855 7.84C58.2602 7.84 58.9108 7.98933 59.3375 8.288C59.7642 8.58667 59.9775 8.98133 59.9775 9.472V9.696L60.3295 8H64.9375L62.6335 18.88C62.5482 19.2 62.5055 19.5413 62.5055 19.904C62.5055 20.8213 62.9428 21.28 63.8175 21.28C64.4148 21.28 64.9268 21.0027 65.3535 20.448C65.8015 19.8933 66.1535 19.168 66.4095 18.272H67.7535C66.9642 20.576 65.9828 22.144 64.8095 22.976C63.6575 23.7867 62.4948 24.192 61.3215 24.192C60.4255 24.192 59.7002 23.9467 59.1455 23.456C58.6122 22.944 58.2922 22.208 58.1855 21.248C57.5668 22.1227 56.8735 22.8373 56.1055 23.392C55.3588 23.9253 54.4628 24.192 53.4175 24.192ZM55.4975 21.088C56.0308 21.088 56.5535 20.8427 57.0655 20.352C57.5988 19.84 57.9615 19.1467 58.1535 18.272L59.6895 11.04C59.6895 10.7627 59.5828 10.496 59.3695 10.24C59.1562 9.96267 58.8255 9.824 58.3775 9.824C57.5242 9.824 56.7562 10.3253 56.0735 11.328C55.3908 12.3093 54.8575 13.504 54.4735 14.912C54.0895 16.2987 53.8975 17.5253 53.8975 18.592C53.8975 19.6587 54.0468 20.3413 54.3455 20.64C54.6655 20.9387 55.0495 21.088 55.4975 21.088ZM71.4773 8H76.0853L75.6693 9.984C76.3946 9.344 77.0453 8.85333 77.6213 8.512C78.2186 8.17067 78.8586 8 79.5413 8C80.2239 8 80.7573 8.23467 81.1413 8.704C81.5466 9.17333 81.7493 9.73867 81.7493 10.4C81.7493 11.0187 81.5466 11.5627 81.1413 12.032C80.7359 12.5013 80.1706 12.736 79.4453 12.736C78.9759 12.736 78.6559 12.6293 78.4853 12.416C78.3359 12.1813 78.2186 11.8507 78.1333 11.424C78.0693 11.1467 78.0053 10.944 77.9413 10.816C77.8773 10.688 77.7599 10.624 77.5893 10.624C77.1413 10.624 76.7573 10.72 76.4373 10.912C76.1386 11.0827 75.7439 11.392 75.2533 11.84L72.6933 24H68.0853L71.4773 8ZM89.5565 6.272C88.8525 6.272 88.2552 6.02667 87.7645 5.536C87.2738 5.04533 87.0285 4.448 87.0285 3.744C87.0285 3.04 87.2738 2.44267 87.7645 1.952C88.2552 1.44 88.8525 1.184 89.5565 1.184C90.2605 1.184 90.8578 1.44 91.3485 1.952C91.8605 2.44267 92.1165 3.04 92.1165 3.744C92.1165 4.448 91.8605 5.04533 91.3485 5.536C90.8578 6.02667 90.2605 6.272 89.5565 6.272ZM87.3805 24.192C86.3565 24.192 85.5245 23.872 84.8845 23.232C84.2658 22.592 83.9565 21.632 83.9565 20.352C83.9565 19.8187 84.0418 19.1253 84.2125 18.272L86.3885 8H90.9965L88.6925 18.88C88.6072 19.2 88.5645 19.5413 88.5645 19.904C88.5645 20.3307 88.6605 20.64 88.8525 20.832C89.0658 21.0027 89.4072 21.088 89.8765 21.088C90.4952 21.088 91.0712 20.832 91.6045 20.32C92.1378 19.7867 92.5218 19.104 92.7565 18.272H94.1005C93.3112 20.576 92.2978 22.144 91.0605 22.976C89.8232 23.7867 88.5965 24.192 87.3805 24.192ZM92.7437 32C91.7411 32 90.8664 31.6693 90.1197 31.008C89.3517 30.368 88.9677 29.5467 88.9677 28.544C88.9677 27.6267 89.2024 26.8693 89.6717 26.272C90.1411 25.6747 90.7491 25.1947 91.4957 24.832C92.2424 24.4907 93.2344 24.128 94.4717 23.744L98.3437 5.472C98.7704 3.424 99.5171 2.00533 100.584 1.216C101.672 0.426666 102.866 0.0319996 104.168 0.0319996C105.17 0.0319996 106.045 0.362666 106.792 1.024C107.56 1.664 107.944 2.48533 107.944 3.488C107.944 3.97867 107.912 4.416 107.848 4.8H106.344C106.386 4.33067 106.408 4.04267 106.408 3.936C106.408 3.59467 106.29 3.328 106.056 3.136C105.821 2.944 105.533 2.848 105.192 2.848C104.744 2.848 104.306 3.05067 103.88 3.456C103.453 3.84 103.144 4.512 102.952 5.472L102.408 8H104.744L104.52 9.28H102.152L98.4717 26.56C98.0451 28.6293 97.3091 30.048 96.2637 30.816C95.2184 31.6053 94.0451 32 92.7437 32ZM92.0077 29.152C92.8611 29.152 93.4691 28.32 93.8317 26.656L94.2477 24.8C93.1171 25.184 92.2531 25.6213 91.6557 26.112C91.0371 26.624 90.7277 27.2853 90.7277 28.096C90.7277 28.352 90.8557 28.5867 91.1117 28.8C91.3677 29.0347 91.6664 29.152 92.0077 29.152ZM112.027 32C111.024 32 110.139 31.6693 109.371 31.008C108.624 30.368 108.251 29.5467 108.251 28.544C108.251 27.6053 108.486 26.8373 108.955 26.24C109.424 25.6427 110.032 25.1733 110.779 24.832C111.526 24.4907 112.528 24.128 113.787 23.744L114.107 22.336C113.019 23.5733 111.718 24.192 110.203 24.192C109.179 24.192 108.347 23.872 107.707 23.232C107.088 22.592 106.779 21.632 106.779 20.352C106.779 19.8187 106.864 19.1253 107.035 18.272L109.211 8H113.819L111.515 18.88C111.451 19.136 111.419 19.4027 111.419 19.68C111.419 20.6187 111.739 21.088 112.379 21.088C112.976 21.088 113.488 20.8427 113.915 20.352C114.342 19.84 114.683 19.1467 114.939 18.272L117.115 8H121.755L117.851 26.56C117.424 28.608 116.667 30.0267 115.579 30.816C114.512 31.6053 113.328 32 112.027 32ZM111.291 29.152C111.675 29.152 112.038 28.9493 112.379 28.544C112.72 28.16 112.987 27.5307 113.179 26.656L113.563 24.768C112.432 25.152 111.558 25.6 110.939 26.112C110.32 26.624 110.011 27.2853 110.011 28.096C110.011 28.352 110.139 28.5867 110.395 28.8C110.651 29.0347 110.95 29.152 111.291 29.152Z" fill="url(#paint0_linear_202_193)"/>
<defs>
<linearGradient id="paint0_linear_202_193" x1="63" y1="-8" x2="63" y2="32" gradientUnits="userSpaceOnUse">
<stop stop-color="#8A177C" stop-opacity="0"/>
<stop offset="0.632292" stop-color="#8A177C"/>
</linearGradient>
</defs>
</svg>
